<svg width="36" height="36" viewBox="0 0 36 36" fill="none" xmlns="http://www.w3.org/2000/svg">
<path d="M32.895 10.1399L27.84 30.4349C27.6645 31.1689 27.2459 31.8218 26.6522 32.2875C26.0584 32.7533 25.3246 33.0044 24.57 32.9999H4.85997C2.59497 32.9999 0.974972 30.7799 1.64997 28.6049L7.96497 8.32494C8.17599 7.63719 8.60124 7.03486 9.17869 6.60581C9.75615 6.17677 10.4556 5.94347 11.175 5.93994H29.625C31.05 5.93994 32.235 6.80994 32.73 8.00994C33.015 8.65494 33.075 9.38994 32.895 10.1399Z" stroke="#6A74C9" stroke-width="1.5" stroke-miterlimit="10"/>
<path d="M24 32.9999H31.17C33.105 32.9999 34.62 31.365 34.485 29.43L33 8.99995M14.52 9.56995L16.08 3.08995M24.57 9.58495L25.98 3.07495M11.55 17.9999H23.55M10.05 23.9999H22.05" stroke="#6A74C9" stroke-width="1.5" stroke-miterlimit="10" stroke-linecap="round" stroke-linejoin="round"/>
</svg>
