<svg width="8" height="8" viewBox="0 0 8 8" fill="none" xmlns="http://www.w3.org/2000/svg">
<path fill-rule="evenodd" clip-rule="evenodd" d="M4.00002 4.61039C3.38391 4.61039 2.88254 4.10942 2.88254 3.49331C2.88254 2.87721 3.38391 2.37583 4.00002 2.37583C4.61612 2.37583 5.11709 2.87721 5.11709 3.49331C5.11709 4.10942 4.61612 4.61039 4.00002 4.61039ZM6.29215 0.999898C5.66706 0.355211 4.85293 0 4.00002 0C3.14629 0 2.33217 0.355211 1.70667 1.00031C1.07178 1.6552 0.723104 2.53506 0.750459 3.41451C0.827626 5.90671 3.76321 7.8473 3.88855 7.92855L3.99838 8L4.10944 7.92977C4.23437 7.85057 7.17201 5.95692 7.24958 3.41411C7.27653 2.53506 6.92744 1.65479 6.29215 0.999898Z" fill="#6A74C9"/>
</svg>
