<svg width="49" height="44" viewBox="0 0 49 44" fill="none" xmlns="http://www.w3.org/2000/svg">
<rect width="48.43" height="43.907" rx="3" fill="#6A74C9"/>
<path fill-rule="evenodd" clip-rule="evenodd" d="M30.69 22.2619C29.55 22.2619 28.48 22.4919 27.58 22.8819C30.73 23.7919 32.96 25.9719 33.02 28.5219C34.66 28.3119 36.43 27.6919 36.43 26.0019C36.43 23.9719 33.8 22.2619 30.69 22.2619Z" fill="#FDFFFE"/>
<path fill-rule="evenodd" clip-rule="evenodd" d="M30.66 20.822H30.68C32.81 20.822 34.55 19.0819 34.55 16.9619C34.55 14.8319 32.81 13.0919 30.68 13.0919C30.26 13.0919 29.86 13.1619 29.48 13.2819C30.17 14.3019 30.57 15.5319 30.57 16.8619C30.58 18.2119 30.16 19.5119 29.37 20.592C29.78 20.742 30.21 20.822 30.66 20.822Z" fill="#FDFFFE"/>
<path fill-rule="evenodd" clip-rule="evenodd" d="M20.84 22.8719C19.94 22.4919 18.87 22.2619 17.74 22.2619C14.63 22.2619 12 23.9719 12 26.0019C12 27.6919 13.76 28.3019 15.4 28.5219C15.45 25.9719 17.68 23.7919 20.84 22.8719Z" fill="#FDFFFE"/>
<path fill-rule="evenodd" clip-rule="evenodd" d="M17.74 20.822H17.77C18.22 20.822 18.65 20.742 19.06 20.592C18.3 19.5519 17.85 18.2619 17.85 16.8619C17.85 15.5319 18.25 14.3019 18.94 13.2819C18.56 13.1619 18.16 13.0919 17.74 13.0919C15.61 13.0919 13.88 14.8319 13.88 16.9619C13.88 19.0819 15.61 20.822 17.74 20.822Z" fill="#FDFFFE"/>
<path fill-rule="evenodd" clip-rule="evenodd" d="M24.2096 23.899C20.2486 23.899 16.9016 26.055 16.9016 28.607C16.9016 31.907 22.4016 31.907 24.2096 31.907C27.3476 31.907 31.5196 31.567 31.5196 28.628C31.5196 26.064 28.1716 23.899 24.2096 23.899Z" fill="#FDFFFE"/>
<path fill-rule="evenodd" clip-rule="evenodd" d="M24.2106 21.728H24.2436C25.5386 21.724 26.7546 21.215 27.6666 20.296C28.5796 19.377 29.0796 18.158 29.0746 16.865C29.0746 14.182 26.8936 12 24.2106 12C21.5286 12 19.3476 14.182 19.3476 16.865C19.3476 19.546 21.5286 21.728 24.2106 21.728Z" fill="#FDFFFE"/>
</svg>
