<svg width="36" height="36" viewBox="0 0 36 36" fill="none" xmlns="http://www.w3.org/2000/svg">
<path d="M18.03 4.36499C13.065 4.36499 9.02999 8.39999 9.02999 13.365V17.7C9.02999 18.615 8.63999 20.01 8.17499 20.79L6.44999 23.655C5.38499 25.425 6.11999 27.39 8.06999 28.05C14.535 30.21 21.51 30.21 27.975 28.05C29.79 27.45 30.585 25.305 29.595 23.655L27.87 20.79C27.42 20.01 27.03 18.615 27.03 17.7V13.365C27.03 8.41499 22.98 4.36499 18.03 4.36499Z" stroke="#6A74C9" stroke-width="1.5" stroke-miterlimit="10" stroke-linecap="round"/>
<path d="M20.805 4.80003C18.9911 4.28342 17.0689 4.28342 15.255 4.80003C15.69 3.69003 16.77 2.91003 18.03 2.91003C19.29 2.91003 20.37 3.69003 20.805 4.80003Z" stroke="#6A74C9" stroke-width="1.5" stroke-miterlimit="10" stroke-linecap="round" stroke-linejoin="round"/>
<path d="M22.53 28.59C22.53 31.065 20.505 33.09 18.03 33.09C16.8 33.09 15.66 32.58 14.85 31.77C14.0072 30.9259 13.5327 29.7827 13.53 28.59" stroke="#6A74C9" stroke-width="1.5" stroke-miterlimit="10"/>
</svg>
