<svg width="30" height="28" viewBox="0 0 30 28" fill="none" xmlns="http://www.w3.org/2000/svg">
<path d="M27.2381 2.82381L27.2389 2.82466C28.5265 4.15854 29.25 5.9619 29.25 7.85556V20.1444C29.25 24.0941 26.1573 27.25 22.4085 27.25H7.59C3.84139 27.25 0.75 24.0943 0.75 20.1444V7.85556C0.75 3.90471 3.82733 0.75 7.59 0.75H22.4085C24.2136 0.75 25.9542 1.48962 27.2381 2.82381ZM24.1827 7.34293L24.1643 7.341L24.1457 7.33999C23.6356 7.31228 23.1417 7.48872 22.7664 7.83786L16.0217 13.4223L16.0216 13.4222L16.011 13.4314C15.4243 13.9359 14.5907 13.9408 13.9847 13.4277L13.9847 13.4276L13.9789 13.4228L7.22888 7.82278L7.21782 7.81361L7.20643 7.80487C6.44818 7.22335 5.36836 7.28237 4.70475 7.99387C4.0525 8.67572 3.97955 9.74834 4.53949 10.509L4.56988 10.5503L4.60562 10.5871L4.80212 10.7893L4.83337 10.8215L4.86824 10.8497L11.6912 16.3703C11.6915 16.3706 11.6919 16.3708 11.6922 16.3711C12.6606 17.1598 13.8447 17.5967 15.09 17.5967C16.3298 17.5967 17.5331 17.1614 18.5028 16.3699L18.5028 16.3699L18.5075 16.366L25.274 10.7505L25.306 10.7239L25.3349 10.6939L25.4549 10.5695L25.4798 10.5436L25.5022 10.5155C26.0788 9.78994 26.0802 8.74162 25.4753 8.01389L25.4659 8.00263L25.4561 7.99174C25.1213 7.61958 24.6628 7.39296 24.1827 7.34293Z" stroke="#6A74C9" stroke-width="1.5"/>
</svg>
